<?xml version="1.0" encoding="UTF-8" standalone="no"?>
<!-- Generator: Adobe Illustrator 16.0.0, SVG Export Plug-In . SVG Version: 6.00 Build 0)  -->

<svg
   version="1.1"
   id="Layer_1"
   x="0px"
   y="0px"
   width="360"
   height="360"
   viewBox="0 0 360 360"
   enable-background="new 0 0 360 360"
   xml:space="preserve"
   xmlns="http://www.w3.org/2000/svg"
   xmlns:svg="http://www.w3.org/2000/svg"><defs
   id="defs69" />
<g
   id="g64">
	<path
   fill="#010101"
   d="m 219.218,109.803 0.018,0.021 0.02,0.022 c 0.093,0.113 0.189,0.229 0.296,0.354 5.075,5.997 9.817,11.19 14.506,15.875 2.05,2.053 4.275,4.184 6.613,6.339 1.614,1.487 3.298,3 5.106,4.584 v -23.9 c 0,0 -26.687,-34.422 -29.812,-98.86 -3.126,0.241 -8.418,0 -8.418,0 v 81.055 c 2.839,3.672 5.911,7.568 9.171,11.52 0.817,0.991 1.652,1.992 2.5,2.99 z"
   id="path40" />
	<path
   fill="#010101"
   d="m 346.523,161.385 c -35.825,0.241 -60.352,-6.252 -88.002,-31.978 v 18.203 c 0.058,0.044 0.119,0.094 0.175,0.14 0.604,0.48 1.202,0.951 1.796,1.418 l 0.052,0.041 c 4.786,3.768 9.311,7.183 13.302,10.196 5.779,4.362 10.341,7.809 13.183,10.41 l 0.081,0.076 0.081,0.079 c 1.228,1.227 2.208,2.353 2.99,3.438 h 56.343 v -12.023 z"
   id="path42" />
	<path
   fill="#010101"
   d="m 183.011,67.953 c 0.069,0.025 0.142,0.056 0.212,0.082 -1.078,-27.107 -1.574,-51.791 -1.267,-62.934 -0.518,-0.016 -2.299,0 -2.299,0 0,0 -1.78,-0.016 -2.299,0 0.307,11.127 -0.187,35.755 -1.26,62.816 1.122,-0.377 2.263,-0.572 3.397,-0.572 1.174,0 2.358,0.205 3.516,0.608 z"
   id="path44" />
	<path
   fill="#010101"
   d="m 124.937,126.074 c 4.684,-4.686 9.407,-9.851 14.456,-15.819 0.12,-0.141 0.237,-0.28 0.376,-0.447 0.847,-1.002 1.682,-2.004 2.5,-2.993 3.386,-4.108 6.57,-8.154 9.498,-11.951 V 14.238 c 0,0 -5.29,0.241 -8.416,0 -3.126,64.438 -29.813,98.86 -29.813,98.86 v 23.672 c 1.616,-1.434 3.19,-2.86 4.707,-4.265 2.432,-2.256 4.621,-4.359 6.692,-6.431 z"
   id="path46" />
	<path
   fill="#010101"
   d="m 71.962,169.807 0.178,-0.149 c 0.623,-0.52 1.342,-1.1 2.197,-1.769 1.203,-0.945 2.591,-2 3.789,-2.908 1.048,-0.794 2.177,-1.642 3.375,-2.544 l 2.579,-1.942 c 0.813,-0.612 1.651,-1.246 2.512,-1.898 0.75,-0.568 1.513,-1.147 2.291,-1.74 2.747,-2.098 5.068,-3.896 7.305,-5.657 1.417,-1.116 2.861,-2.263 4.35,-3.464 l 0.074,-0.059 0.149,-0.123 0.033,-0.026 V 129.405 C 73.145,155.131 48.62,161.624 12.793,161.383 v 12.023 h 56.016 c 0.781,-1.082 1.762,-2.208 2.991,-3.437 z"
   id="path48" />
	<path
   fill="#010101"
   d="m 234.05,235.183 c -2.063,2.065 -4.214,4.309 -6.384,6.659 -1.778,1.93 -3.479,3.821 -5.034,5.602 l -0.382,0.444 c -0.169,0.199 -0.338,0.394 -0.501,0.586 l -0.195,0.222 c -0.789,0.917 -1.578,1.824 -2.348,2.735 -0.848,0.998 -1.681,1.999 -2.503,2.989 -1.88,2.274 -3.828,4.69 -5.958,7.39 -1.025,1.303 -2.087,2.662 -3.198,4.096 v 81.102 c 0,0 5.292,-0.241 8.418,0 3.125,-64.439 29.812,-98.862 29.812,-98.862 v -23.931 c -3.432,3.032 -6.662,6.015 -9.625,8.897 -0.704,0.686 -1.406,1.371 -2.102,2.071 z"
   id="path50" />
	<path
   fill="#010101"
   d="m 287.034,191.439 -0.172,0.146 c -2.19,1.839 -5.53,4.354 -9.758,7.539 -1.587,1.194 -3.294,2.481 -5.096,3.851 -2.294,1.74 -4.21,3.213 -6.042,4.635 -1.732,1.34 -3.556,2.771 -5.42,4.254 -0.687,0.548 -1.35,1.087 -2.025,1.632 v 18.345 c 27.65,-25.728 52.177,-32.223 88.002,-31.98 v -12.023 h -56.34 c -0.786,1.091 -1.766,2.216 -2.991,3.442 z"
   id="path52" />
	<path
   fill="#010101"
   d="m 182.978,293.312 -0.032,0.013 c -0.193,0.065 -0.385,0.117 -0.592,0.168 -0.966,0.271 -1.941,0.409 -2.904,0.409 -1.126,0 -2.253,-0.195 -3.35,-0.563 1.072,27.057 1.565,51.68 1.259,62.805 0.519,0.018 2.299,0 2.299,0 0,0 1.781,0.018 2.299,0 -0.308,-11.14 0.188,-35.817 1.265,-62.923 -0.068,0.026 -0.141,0.057 -0.21,0.084 z"
   id="path54" />
	<path
   fill="#010101"
   d="m 142.273,254.429 c -0.819,-0.992 -1.651,-1.987 -2.5,-2.995 -1.107,-1.313 -2.255,-2.649 -3.509,-4.085 -2.586,-2.965 -5.235,-5.863 -7.868,-8.623 -1.307,-1.364 -2.406,-2.489 -3.455,-3.539 -0.655,-0.659 -1.317,-1.306 -1.981,-1.951 -0.062,-0.06 -0.123,-0.12 -0.187,-0.186 -2.841,-2.76 -5.945,-5.612 -9.234,-8.512 v 23.606 c 0,0 26.687,34.423 29.813,98.862 3.126,-0.241 8.416,0 8.416,0 v -80.639 c -0.284,-0.368 -0.565,-0.737 -0.852,-1.107 -3.097,-3.989 -5.923,-7.534 -8.643,-10.831 z"
   id="path56" />
	<path
   fill="#010101"
   d="m 96.89,210.774 c -1.665,-1.308 -3.298,-2.575 -4.878,-3.784 -2.733,-2.099 -5.374,-4.095 -7.703,-5.852 -1.586,-1.202 -3.078,-2.328 -4.461,-3.382 -1.235,-0.94 -2.381,-1.825 -3.433,-2.648 -0.639,-0.501 -1.234,-0.977 -1.793,-1.43 -1.016,-0.823 -1.89,-1.558 -2.601,-2.189 l -0.116,-0.099 -0.11,-0.111 c -1.107,-1.107 -2.005,-2.125 -2.742,-3.105 -0.085,-0.112 -0.155,-0.227 -0.237,-0.337 H 12.791 v 12.023 c 35.827,-0.242 60.352,6.253 88.001,31.98 v -17.98 c -0.817,-0.652 -1.649,-1.318 -2.517,-2.001 -0.462,-0.365 -0.918,-0.723 -1.385,-1.085 z"
   id="path58" />
	<path
   fill="#010101"
   d="m 283.532,173.633 c -0.078,-0.072 -0.172,-0.151 -0.252,-0.225 -4.498,-4.05 -13.855,-10.679 -24.759,-19.209 -0.394,-0.307 -0.784,-0.61 -1.18,-0.924 -0.619,-0.486 -1.241,-0.976 -1.87,-1.477 -1.709,-1.357 -3.442,-2.758 -5.197,-4.196 -0.083,-0.071 -0.168,-0.139 -0.254,-0.209 -0.489,-0.402 -0.982,-0.819 -1.476,-1.227 -0.521,-0.437 -1.042,-0.867 -1.566,-1.31 -0.4,-0.335 -0.801,-0.684 -1.202,-1.025 -0.609,-0.521 -1.22,-1.037 -1.83,-1.565 -2.265,-1.957 -4.536,-3.972 -6.787,-6.048 -2.286,-2.105 -4.55,-4.267 -6.766,-6.484 -5.233,-5.231 -10.188,-10.746 -14.796,-16.189 -0.111,-0.132 -0.223,-0.265 -0.332,-0.398 -0.86,-1.016 -1.707,-2.03 -2.541,-3.04 -1.79,-2.169 -3.515,-4.312 -5.178,-6.41 -4.749,-5.995 -8.963,-11.611 -12.521,-16.311 -3.543,-4.687 -6.433,-8.468 -8.537,-10.798 -1.088,-1.088 -2.08,-1.949 -3.021,-2.6 -0.748,-0.518 -1.463,-0.905 -2.159,-1.147 -0.457,-0.161 -0.908,-0.238 -1.356,-0.28 -0.152,-0.013 -0.304,-0.04 -0.456,-0.04 h -0.001 c -0.176,0 -0.354,0.028 -0.532,0.047 -0.122,0.014 -0.246,0.011 -0.369,0.033 -0.302,0.053 -0.605,0.133 -0.912,0.241 -0.591,0.206 -1.195,0.512 -1.822,0.915 -1.039,0.67 -2.141,1.614 -3.358,2.831 -2.11,2.333 -5.009,6.125 -8.563,10.826 -3.468,4.583 -7.567,10.039 -12.171,15.864 -1.764,2.231 -3.596,4.514 -5.502,6.828 -0.834,1.008 -1.681,2.022 -2.539,3.038 -0.134,0.161 -0.267,0.319 -0.402,0.478 -4.584,5.418 -9.52,10.906 -14.725,16.111 -2.239,2.24 -4.526,4.426 -6.833,6.566 -2.729,2.532 -5.486,4.966 -8.227,7.332 -0.485,0.417 -0.971,0.851 -1.454,1.264 -1.012,0.859 -2.018,1.709 -3.021,2.546 -1.59,1.326 -3.162,2.612 -4.716,3.87 -0.055,0.044 -0.112,0.09 -0.166,0.135 -0.105,0.084 -0.211,0.171 -0.314,0.255 -0.034,0.026 -0.069,0.056 -0.104,0.083 -1.008,0.812 -1.987,1.586 -2.972,2.367 -0.464,0.368 -0.944,0.755 -1.402,1.117 -2.565,2.019 -5.034,3.921 -7.366,5.702 -0.787,0.6 -1.554,1.183 -2.307,1.751 -0.866,0.657 -1.708,1.295 -2.524,1.909 -2.177,1.642 -4.173,3.138 -5.942,4.478 -1.383,1.048 -2.636,2.005 -3.716,2.852 -0.671,0.525 -1.265,1.003 -1.803,1.447 -0.089,0.072 -0.189,0.154 -0.274,0.225 -1.532,1.531 -2.632,2.879 -3.3,4.149 -0.016,0.033 -0.027,0.064 -0.043,0.096 -0.161,0.317 -0.296,0.628 -0.405,0.935 -0.425,1.227 -0.425,2.402 0,3.627 0.292,0.838 0.789,1.699 1.479,2.619 0.604,0.8 1.358,1.646 2.271,2.562 0.076,0.065 0.171,0.146 0.251,0.215 0.633,0.555 1.353,1.16 2.168,1.819 0.541,0.439 1.116,0.896 1.733,1.379 1.029,0.807 2.159,1.676 3.376,2.605 3.456,2.633 7.609,5.737 12.177,9.24 1.593,1.222 3.24,2.501 4.919,3.814 0.237,0.188 0.474,0.376 0.709,0.559 0.234,0.184 0.467,0.363 0.702,0.552 2.441,1.927 4.953,3.943 7.496,6.045 1.008,0.833 2.022,1.681 3.035,2.535 0.502,0.427 1.008,0.866 1.513,1.3 4.311,3.687 8.649,7.576 12.842,11.651 0.052,0.05 0.1,0.102 0.152,0.149 0.693,0.677 1.384,1.354 2.069,2.04 1.195,1.195 2.37,2.404 3.533,3.619 2.767,2.898 5.451,5.845 8.027,8.795 1.214,1.39 2.404,2.777 3.568,4.158 0.859,1.015 1.707,2.029 2.537,3.04 1.911,2.313 3.738,4.592 5.5,6.819 1.106,1.398 2.193,2.784 3.238,4.132 1.641,2.123 3.203,4.158 4.682,6.111 0.657,0.866 1.295,1.712 1.918,2.535 0.431,0.57 0.861,1.142 1.274,1.688 1.366,1.808 2.634,3.49 3.815,5.028 2.314,3.032 4.271,5.51 5.807,7.215 1.217,1.218 2.32,2.157 3.359,2.833 0.626,0.4 1.23,0.707 1.821,0.915 0.29,0.101 0.574,0.171 0.858,0.222 0.1,0.02 0.198,0.023 0.297,0.034 0.185,0.02 0.37,0.046 0.555,0.046 0.019,0 0.039,0.009 0.059,0.009 0.163,0 0.326,-0.023 0.488,-0.04 0.08,-0.006 0.159,-0.001 0.237,-0.015 0.264,-0.037 0.53,-0.092 0.799,-0.167 0.111,-0.034 0.222,-0.051 0.334,-0.089 0.694,-0.245 1.411,-0.633 2.159,-1.147 0.941,-0.653 1.934,-1.514 3.021,-2.601 0,-0.004 0.005,-0.004 0.005,-0.004 1.054,-1.188 2.327,-2.762 3.778,-4.621 1.661,-2.135 3.56,-4.649 5.688,-7.472 0.01,-0.015 0.021,-0.031 0.03,-0.043 1.479,-1.96 3.077,-4.073 4.765,-6.279 1.86,-2.436 3.837,-4.997 5.927,-7.643 0.283,-0.359 0.582,-0.729 0.866,-1.091 1.663,-2.094 3.373,-4.22 5.168,-6.391 0.832,-1.007 1.679,-2.021 2.537,-3.037 0.845,-0.999 1.715,-1.998 2.583,-3.001 0.296,-0.342 0.583,-0.683 0.879,-1.027 1.673,-1.91 3.394,-3.826 5.146,-5.725 2.123,-2.301 4.297,-4.579 6.526,-6.808 0.711,-0.717 1.428,-1.42 2.151,-2.121 4.318,-4.208 8.794,-8.24 13.238,-12.054 0.379,-0.329 0.762,-0.662 1.138,-0.983 1.016,-0.862 2.022,-1.712 3.023,-2.548 2.505,-2.082 4.976,-4.088 7.387,-6.007 0.404,-0.321 0.798,-0.631 1.197,-0.946 1.453,-1.147 2.882,-2.274 4.276,-3.351 2.117,-1.643 4.151,-3.201 6.079,-4.663 6.327,-4.801 11.457,-8.577 14.392,-11.017 0.083,-0.069 0.184,-0.149 0.264,-0.215 1.953,-1.956 3.198,-3.605 3.746,-5.181 0.43,-1.226 0.43,-2.4 0,-3.627 -0.109,-0.322 -0.252,-0.648 -0.424,-0.979 -0.663,-1.278 -1.767,-2.642 -3.322,-4.196 z m -22.802,8.808 c -0.004,0 -0.004,0 -0.004,0 -0.283,1.32 -0.884,2.611 -1.793,3.787 -0.914,1.21 -3.681,4.913 -7.735,10.006 -1.036,1.297 -2.16,2.688 -3.354,4.15 -0.356,0.437 -0.719,0.88 -1.088,1.328 -0.318,0.391 -0.65,0.789 -0.98,1.188 -1.644,1.982 -3.396,4.063 -5.256,6.214 -0.804,0.932 -1.623,1.873 -2.461,2.827 -3.87,4.396 -8.089,8.979 -12.492,13.439 -0.512,0.518 -1.025,1.033 -1.544,1.552 l -0.004,0.006 c -0.04,0.04 -0.079,0.078 -0.117,0.115 -2.041,2.049 -4.088,4.036 -6.112,5.958 -0.772,0.729 -1.543,1.455 -2.307,2.169 -1.552,1.438 -3.083,2.84 -4.59,4.191 -0.946,0.851 -1.884,1.684 -2.808,2.497 -0.181,0.158 -0.358,0.313 -0.539,0.471 -0.271,0.236 -0.545,0.475 -0.811,0.712 -2.111,1.834 -4.133,3.551 -6.046,5.146 -1.642,1.374 -3.201,2.65 -4.647,3.821 -2.226,1.799 -4.199,3.354 -5.834,4.621 -0.012,0.009 -0.021,0.017 -0.032,0.028 -1.451,1.118 -2.633,2.017 -3.494,2.668 -0.474,0.359 -0.853,0.645 -1.122,0.846 l -0.057,0.031 c -0.238,0.196 -0.494,0.367 -0.754,0.535 -1.028,0.664 -2.207,1.108 -3.442,1.31 -0.174,0.031 -0.356,0.047 -0.532,0.069 -0.378,0.043 -0.758,0.06 -1.139,0.065 -0.044,0 -0.089,0.009 -0.135,0.009 -0.041,0 -0.081,-0.009 -0.121,-0.009 -0.189,0 -0.38,-0.011 -0.568,-0.022 -0.096,-0.008 -0.192,-0.008 -0.288,-0.02 -0.283,-0.023 -0.563,-0.062 -0.843,-0.112 -1.097,-0.191 -2.151,-0.559 -3.105,-1.082 -0.403,-0.223 -0.793,-0.464 -1.152,-0.743 -0.765,-0.57 -2.435,-1.833 -4.767,-3.66 -0.54,-0.422 -1.117,-0.877 -1.727,-1.361 -1.627,-1.289 -3.494,-2.791 -5.537,-4.462 -2.898,-2.384 -6.165,-5.132 -9.627,-8.149 -0.285,-0.249 -0.561,-0.487 -0.849,-0.739 -0.261,-0.233 -0.528,-0.474 -0.791,-0.701 -0.67,-0.594 -1.338,-1.184 -2.02,-1.792 -1.111,-0.995 -2.239,-2.025 -3.375,-3.063 -0.445,-0.408 -0.888,-0.814 -1.337,-1.229 -3.061,-2.837 -6.175,-5.816 -9.257,-8.918 l -0.01,-0.008 c -0.27,-0.268 -0.535,-0.531 -0.802,-0.804 -0.324,-0.325 -0.637,-0.649 -0.957,-0.976 -0.045,-0.048 -0.09,-0.094 -0.135,-0.138 -0.091,-0.089 -0.18,-0.181 -0.271,-0.275 -1.231,-1.253 -2.441,-2.501 -3.631,-3.753 -2.631,-2.762 -5.167,-5.507 -7.547,-8.177 -0.849,-0.948 -1.679,-1.883 -2.49,-2.81 -1.675,-1.912 -3.264,-3.76 -4.758,-5.524 -0.545,-0.648 -1.078,-1.279 -1.596,-1.901 -1.088,-1.301 -2.114,-2.545 -3.079,-3.728 -1.5,-1.835 -2.846,-3.516 -4.014,-4.994 -0.533,-0.67 -1.029,-1.305 -1.486,-1.887 -1.638,-2.103 -2.774,-3.604 -3.309,-4.32 l 0.006,-0.003 c -0.479,-0.579 -0.864,-1.23 -1.17,-1.924 -0.344,-0.78 -0.587,-1.615 -0.713,-2.477 -0.003,-0.023 -0.004,-0.048 -0.008,-0.071 -0.165,-1.176 -0.125,-2.387 0.104,-3.556 0.055,-0.281 0.131,-0.555 0.207,-0.828 0.331,-1.177 0.849,-2.287 1.581,-3.224 0.404,-0.541 1.163,-1.543 2.213,-2.903 0.631,-0.819 1.367,-1.767 2.211,-2.834 1.088,-1.383 2.347,-2.958 3.753,-4.69 0.388,-0.478 0.785,-0.965 1.196,-1.465 0.908,-1.109 1.874,-2.272 2.886,-3.48 0.393,-0.469 0.811,-0.958 1.218,-1.44 1.057,-1.252 2.146,-2.53 3.298,-3.859 0.549,-0.635 1.11,-1.276 1.679,-1.925 0.811,-0.923 1.643,-1.861 2.492,-2.808 1.952,-2.179 3.996,-4.415 6.118,-6.668 2.259,-2.397 4.6,-4.815 7.01,-7.213 l 0.01,-0.01 c 4.722,-4.745 9.525,-9.233 14.086,-13.31 0.432,-0.389 0.859,-0.769 1.288,-1.147 0.512,-0.454 1.019,-0.9 1.521,-1.344 0.245,-0.214 0.485,-0.421 0.727,-0.634 4.52,-3.943 8.696,-7.412 12.171,-10.218 4.804,-3.881 8.281,-6.513 9.491,-7.421 0.353,-0.274 0.733,-0.512 1.128,-0.73 0.959,-0.529 2.022,-0.902 3.125,-1.096 0.306,-0.053 0.613,-0.093 0.921,-0.121 0.096,-0.009 0.191,-0.008 0.288,-0.014 0.213,-0.013 0.427,-0.028 0.64,-0.028 0.01,0 0.021,-0.002 0.031,-0.002 0.184,0 0.366,0.014 0.548,0.023 0.105,0.005 0.209,0.004 0.313,0.012 0.297,0.024 0.591,0.061 0.884,0.108 1.244,0.21 2.426,0.652 3.464,1.323 0.253,0.164 0.506,0.332 0.738,0.525 l 0.005,-0.006 c 1.212,0.909 4.7,3.547 9.511,7.434 3.57,2.882 7.87,6.458 12.521,10.529 0.131,0.114 0.261,0.224 0.392,0.339 0.477,0.42 0.958,0.842 1.44,1.271 0.454,0.401 0.91,0.809 1.371,1.219 4.548,4.07 9.338,8.548 14.05,13.281 l 0.015,0.01 c 2.39,2.377 4.71,4.786 6.949,7.18 1.94,2.07 3.804,4.126 5.604,6.149 0.174,0.198 0.361,0.401 0.534,0.599 0.843,0.951 1.669,1.892 2.474,2.819 0.341,0.393 0.673,0.779 1.004,1.167 0.223,0.261 0.453,0.525 0.673,0.782 0.115,0.138 0.227,0.27 0.345,0.406 1.177,1.383 2.303,2.723 3.38,4.025 0.122,0.144 0.246,0.292 0.364,0.436 6.805,8.221 11.505,14.569 12.782,16.273 l 0.011,0.015 c 0.889,1.081 1.473,2.27 1.768,3.495 0.285,1.195 0.291,2.422 0.03,3.627 z"
   id="path60" />
	<path
   fill="#010101"
   d="m 254.637,178.242 c -0.307,-0.876 -0.773,-1.727 -1.425,-2.512 l -0.006,-0.016 c -0.885,-1.177 -3.526,-4.745 -7.43,-9.64 -0.921,-1.156 -1.909,-2.385 -2.967,-3.677 -1.171,-1.437 -2.432,-2.956 -3.752,-4.522 -0.329,-0.384 -0.651,-0.769 -0.983,-1.16 -0.454,-0.53 -0.909,-1.063 -1.374,-1.605 -0.207,-0.244 -0.425,-0.492 -0.64,-0.737 -0.651,-0.752 -1.326,-1.52 -2.004,-2.289 -0.157,-0.178 -0.309,-0.353 -0.467,-0.531 -1.549,-1.75 -3.163,-3.531 -4.828,-5.327 -2.313,-2.49 -4.727,-5.001 -7.212,-7.479 l -0.006,-0.009 c -4.343,-4.363 -8.755,-8.49 -12.951,-12.247 -0.352,-0.313 -0.696,-0.617 -1.046,-0.926 -0.388,-0.346 -0.781,-0.696 -1.163,-1.036 -0.205,-0.178 -0.403,-0.352 -0.604,-0.526 -3.938,-3.452 -7.61,-6.523 -10.754,-9.081 -4.994,-4.062 -8.642,-6.829 -9.896,-7.769 -0.013,-0.009 -0.033,-0.026 -0.049,-0.036 l -0.004,0.005 -0.063,-0.059 c -0.686,-0.57 -1.478,-0.985 -2.32,-1.283 -0.45,-0.16 -0.912,-0.297 -1.386,-0.382 -0.289,-0.052 -0.582,-0.09 -0.875,-0.115 -0.097,-0.009 -0.196,-0.007 -0.293,-0.014 -0.178,-0.01 -0.358,-0.022 -0.538,-0.022 -0.016,0 -0.033,0.001 -0.049,0.001 -0.212,10e-4 -0.426,0.016 -0.638,0.032 -0.101,0.006 -0.201,0.006 -0.3,0.016 -0.313,0.031 -0.624,0.077 -0.932,0.136 -0.578,0.114 -1.141,0.292 -1.686,0.505 -0.637,0.251 -1.239,0.57 -1.794,0.957 -0.11,0.077 -0.229,0.145 -0.337,0.228 -1.215,0.912 -4.891,3.695 -9.927,7.796 -3.139,2.552 -6.804,5.617 -10.737,9.065 -0.228,0.199 -0.454,0.396 -0.682,0.599 -0.248,0.218 -0.502,0.444 -0.752,0.667 -0.458,0.406 -0.914,0.81 -1.377,1.223 -4.207,3.763 -8.63,7.899 -12.982,12.272 l -0.007,0.007 c -2.509,2.5 -4.943,5.022 -7.272,7.514 -1.658,1.773 -3.26,3.528 -4.804,5.249 -0.851,0.948 -1.68,1.886 -2.49,2.81 -0.21,0.24 -0.42,0.477 -0.625,0.713 -2.372,2.717 -4.548,5.293 -6.504,7.653 -0.043,0.053 -0.086,0.104 -0.129,0.155 -0.711,0.859 -1.389,1.687 -2.035,2.483 -0.692,0.85 -1.349,1.662 -1.962,2.429 -0.358,0.446 -0.701,0.878 -1.029,1.292 -0.82,1.032 -1.554,1.968 -2.187,2.785 -1.255,1.616 -2.143,2.789 -2.582,3.377 -0.498,0.639 -0.886,1.363 -1.182,2.133 -0.084,0.218 -0.164,0.44 -0.233,0.667 -0.078,0.265 -0.155,0.531 -0.213,0.803 -0.252,1.189 -0.292,2.431 -0.103,3.627 0.054,0.341 0.131,0.675 0.223,1.004 0.056,0.201 0.124,0.402 0.193,0.598 0.104,0.286 0.216,0.573 0.347,0.846 0.264,0.548 0.581,1.067 0.968,1.531 l -0.005,0.004 c 0.426,0.57 1.263,1.681 2.447,3.204 0.373,0.483 0.781,1.009 1.222,1.566 0.823,1.049 1.758,2.23 2.799,3.522 0.409,0.51 0.855,1.058 1.297,1.598 0.799,0.983 1.629,1.999 2.526,3.078 1.969,2.371 4.159,4.947 6.533,7.659 0.808,0.923 1.639,1.861 2.487,2.811 2.054,2.293 4.227,4.655 6.48,7.03 1.335,1.412 2.702,2.82 4.093,4.231 0.578,0.589 1.149,1.174 1.738,1.757 l 0.006,0.016 c 0.019,0.015 0.036,0.029 0.052,0.049 2.397,2.405 4.813,4.733 7.204,6.974 0.15,0.142 0.303,0.291 0.452,0.428 1.718,1.604 3.42,3.155 5.089,4.653 0.019,0.015 0.038,0.032 0.058,0.049 0.51,0.461 1.007,0.896 1.509,1.34 0.433,0.384 0.872,0.779 1.299,1.149 2.94,2.58 5.726,4.939 8.262,7.042 2.081,1.726 3.992,3.273 5.666,4.605 1.268,1.012 2.403,1.904 3.379,2.658 1.675,1.301 2.887,2.216 3.489,2.672 0.116,0.088 0.244,0.162 0.365,0.246 0.562,0.387 1.175,0.703 1.826,0.949 0.526,0.2 1.069,0.368 1.629,0.471 0.281,0.054 0.563,0.092 0.847,0.123 0.085,0.008 0.172,0.011 0.257,0.015 0.201,0.015 0.402,0.026 0.603,0.031 0.041,0 0.082,0.003 0.122,0.003 0.042,0 0.084,-0.008 0.126,-0.008 0.367,-0.003 0.733,-0.021 1.096,-0.064 0.192,-0.027 0.386,-0.046 0.576,-0.08 0.513,-0.092 1.004,-0.237 1.486,-0.415 0.826,-0.3 1.604,-0.715 2.274,-1.271 l 0.036,-0.021 0.021,-0.009 c 0.347,-0.264 0.895,-0.674 1.602,-1.206 0.51,-0.391 1.099,-0.838 1.767,-1.355 0.51,-0.387 1.064,-0.819 1.657,-1.282 1.674,-1.307 3.675,-2.888 5.916,-4.722 1.442,-1.176 2.983,-2.446 4.604,-3.817 1.68,-1.417 3.442,-2.933 5.266,-4.535 0.27,-0.235 0.548,-0.488 0.82,-0.726 0.261,-0.229 0.53,-0.472 0.79,-0.706 0.4,-0.351 0.794,-0.696 1.198,-1.063 1.642,-1.478 3.324,-3.014 5.021,-4.61 1.324,-1.24 2.659,-2.52 4.001,-3.821 1.016,-0.99 2.031,-1.987 3.046,-3.006 l 0.007,-0.012 c 0.207,-0.207 0.416,-0.418 0.622,-0.623 0.84,-0.843 1.663,-1.689 2.486,-2.539 3.451,-3.562 6.771,-7.176 9.844,-10.668 0.839,-0.954 1.66,-1.893 2.461,-2.822 2.316,-2.683 4.464,-5.258 6.408,-7.631 0.625,-0.766 1.229,-1.509 1.81,-2.226 0.462,-0.577 0.895,-1.118 1.326,-1.658 0.746,-0.933 1.46,-1.833 2.108,-2.661 2.751,-3.503 4.629,-6.016 5.327,-6.94 0.569,-0.736 1.001,-1.514 1.315,-2.317 0.012,-0.036 0.019,-0.072 0.029,-0.106 0.12,-0.326 0.223,-0.661 0.302,-0.989 0.277,-1.202 0.272,-2.437 -0.038,-3.627 -0.053,-0.196 -0.121,-0.384 -0.186,-0.575 z m -86.147,-23.679 2.7,-7.729 0.024,-0.068 6.467,-18.516 1.641,-4.693 1.986,5.735 6.159,17.778 0.948,2.733 1.827,5.275 1.01,2.917 -1.872,-0.001 h -0.598 -5.489 l 0.156,3.452 0.139,3.028 0.131,2.884 0.032,0.701 0.052,1.16 0.111,2.45 0.04,0.902 0.135,2.926 0.035,0.788 0.032,0.693 0.054,1.213 0.026,0.622 0.031,0.66 0.037,0.779 0.018,0.371 0.015,0.335 0.002,0.064 0.063,1.419 0.02,0.367 0.104,2.363 0.011,0.288 0.063,1.324 0.167,3.691 0.015,0.306 c -0.729,0.128 -1.423,0.214 -2.094,0.292 -0.31,0.034 -0.618,0.065 -0.922,0.087 -0.153,0.008 -0.305,0.02 -0.458,0.03 -0.528,0.028 -1.049,0.043 -1.568,0.043 -0.006,0 -0.012,0 -0.018,0 -0.502,0 -1.001,-0.012 -1.504,-0.039 -0.083,-0.004 -0.168,-0.01 -0.254,-0.019 -0.093,-0.008 -0.189,-0.011 -0.283,-0.02 -0.445,-0.031 -0.9,-0.072 -1.361,-0.126 -0.742,-0.08 -1.502,-0.181 -2.311,-0.307 l 0.044,-0.999 0.106,-2.481 0.085,-1.948 0.001,-0.016 0.096,-2.191 0.026,-0.646 0.056,-1.306 0.008,-0.177 0.015,-0.318 v -0.017 l 0.02,-0.479 0.041,-0.941 0.018,-0.389 0.073,-1.698 0.04,-0.944 0.048,-1.104 0.082,-1.91 0.241,-5.554 0.139,-3.231 0.12,-2.764 0.157,-3.614 h -5.221 -0.269 -2.643 z m 18.388,78.767 c -0.054,0.015 -0.118,0.026 -0.175,0.041 -0.068,0.016 -0.144,0.033 -0.215,0.048 -1.28,0.302 -2.853,0.481 -4.527,0.558 -0.218,0.013 -0.435,0.02 -0.653,0.027 -0.245,0.009 -0.498,0.004 -0.745,0.009 -0.272,0.003 -0.545,0.003 -0.817,0.003 -0.694,0 -1.384,-0.012 -2.064,-0.046 -0.265,-0.015 -0.528,-0.031 -0.786,-0.051 -1.52,-0.099 -2.924,-0.275 -4.07,-0.509 -0.147,-0.03 -0.307,-0.057 -0.445,-0.089 l 0.16,-3.689 0.545,-12.614 0.142,-3.277 0.145,-3.358 0.04,-0.896 0.323,-7.489 0.104,-2.382 c 0.781,0.13 2.107,0.211 3.6,0.245 0.079,0 0.161,0.003 0.243,0.003 0.082,0.005 0.167,0 0.248,0.005 0.494,0.008 1.001,0.011 1.507,0.011 0.629,-0.003 1.258,-0.008 1.871,-0.019 0.018,-0.004 0.033,-0.004 0.049,-0.009 1.669,-0.038 3.179,-0.129 4.038,-0.264 l 0.121,2.665 0.32,7.1 0.391,8.588 0.084,1.856 0.33,7.249 0.125,2.735 0.121,2.691 0.029,0.688 0.01,0.16 c -0.017,0.005 -0.032,0.005 -0.049,0.01 z m 35.461,-50.889 c -0.154,1.418 -0.817,2.776 -1.928,4.063 -0.395,0.456 -0.862,0.897 -1.364,1.333 -1.07,0.931 -2.364,1.815 -3.89,2.643 -1.358,0.734 -2.887,1.425 -4.563,2.063 -0.605,0.234 -1.227,0.461 -1.866,0.674 -0.379,0.13 -0.786,0.25 -1.182,0.373 -1.086,0.345 -2.207,0.669 -3.385,0.976 -0.185,0.049 -0.362,0.104 -0.552,0.149 -0.857,0.214 -1.733,0.422 -2.634,0.613 -2.615,0.559 -5.41,1.029 -8.341,1.394 -0.759,0.096 -1.521,0.184 -2.299,0.268 -0.033,0.005 -0.067,0.009 -0.1,0.011 -0.167,0.016 -0.336,0.035 -0.502,0.05 -1.151,0.115 -2.327,0.212 -3.512,0.287 -0.134,0.012 -0.255,0.027 -0.387,0.031 -1.461,0.104 -2.951,0.174 -4.459,0.215 -0.024,0.005 -0.045,0.005 -0.07,0.005 -1.112,0.033 -2.237,0.049 -3.369,0.053 -0.086,0 -0.171,0.003 -0.257,0.003 -0.05,0.005 -0.103,0.005 -0.155,0.005 -0.036,0 -0.076,0 -0.112,0 -1.472,0 -2.924,-0.031 -4.357,-0.089 -0.509,-0.018 -1.003,-0.054 -1.504,-0.083 -0.817,-0.043 -1.638,-0.077 -2.439,-0.143 -0.012,0 -0.022,0 -0.035,0 -0.156,-0.012 -0.315,-0.021 -0.467,-0.035 -2.019,-0.155 -3.982,-0.37 -5.893,-0.636 -1.416,-0.193 -2.794,-0.425 -4.144,-0.669 -0.3,-0.053 -0.606,-0.107 -0.902,-0.161 -1.081,-0.21 -2.137,-0.441 -3.166,-0.686 -0.936,-0.219 -1.849,-0.455 -2.741,-0.7 -0.85,-0.234 -1.679,-0.482 -2.485,-0.739 -1.502,-0.482 -2.921,-1.004 -4.259,-1.555 -1.78,-0.734 -3.407,-1.527 -4.851,-2.379 -0.575,-0.336 -1.114,-0.685 -1.63,-1.036 -0.428,-0.297 -0.83,-0.594 -1.218,-0.9 -0.176,-0.137 -0.356,-0.275 -0.523,-0.416 -1.848,-1.548 -3.15,-3.225 -3.812,-4.979 -0.324,-0.857 -0.497,-1.737 -0.503,-2.632 -0.002,-0.334 0.027,-0.664 0.07,-0.996 0.03,-0.231 0.083,-0.458 0.135,-0.686 0.382,-1.65 1.338,-3.233 2.776,-4.72 0.56,-0.58 1.186,-1.145 1.889,-1.693 1.147,-0.893 2.468,-1.743 3.963,-2.542 1.744,-0.929 3.71,-1.792 5.873,-2.569 0.039,-0.015 0.076,-0.028 0.115,-0.042 1.405,-0.502 2.902,-0.963 4.459,-1.392 0.187,-0.052 0.362,-0.108 0.549,-0.158 0.163,-0.044 0.332,-0.083 0.495,-0.126 1.006,-0.261 2.035,-0.511 3.098,-0.74 l 8.029,5.168 1.999,1.288 0.629,0.404 c -0.554,0.101 -1.094,0.206 -1.63,0.314 -0.126,0.026 -0.257,0.053 -0.383,0.079 -0.207,0.043 -0.411,0.089 -0.614,0.135 -1.548,0.344 -3.013,0.729 -4.377,1.154 -2.054,0.64 -3.884,1.366 -5.447,2.164 -2.316,1.184 -4.038,2.52 -5.009,3.962 -0.438,0.646 -0.727,1.312 -0.849,1.994 -0.046,0.252 -0.073,0.505 -0.073,0.759 0,0.295 0.042,0.588 0.1,0.874 0.58,2.795 3.907,5.322 9.042,7.244 0.732,0.272 1.499,0.532 2.301,0.782 0.87,0.268 1.78,0.524 2.725,0.761 1.39,0.35 2.854,0.659 4.389,0.932 0.763,0.133 1.544,0.261 2.339,0.376 0.749,0.106 1.51,0.206 2.286,0.299 0.055,0.006 0.111,0.011 0.166,0.015 0.225,0.027 0.449,0.053 0.672,0.076 0.998,0.104 2.009,0.195 3.039,0.265 0.803,0.054 1.617,0.1 2.439,0.138 0.052,0 0.108,0.003 0.159,0.008 0.039,0 0.079,0 0.116,0 1.102,0.046 2.219,0.072 3.351,0.075 0.175,0.005 0.347,0.009 0.522,0.009 0.114,0 0.223,-0.004 0.334,-0.004 0.56,-0.005 1.122,-0.011 1.682,-0.027 0.784,-0.019 1.572,-0.058 2.361,-0.104 0.061,0 0.123,0 0.183,-0.004 0.471,-0.03 0.941,-0.065 1.411,-0.1 0.816,-0.061 1.624,-0.164 2.437,-0.252 0.544,-0.058 1.098,-0.099 1.636,-0.169 0.266,-0.03 0.519,-0.079 0.779,-0.115 1.738,-0.236 3.453,-0.52 5.108,-0.861 0.601,-0.117 1.202,-0.249 1.785,-0.387 1.259,-0.29 2.467,-0.613 3.629,-0.956 0.33,-0.101 0.651,-0.195 0.973,-0.3 1.205,-0.383 2.343,-0.793 3.399,-1.229 0.837,-0.341 1.608,-0.705 2.34,-1.076 0.24,-0.122 0.494,-0.241 0.723,-0.367 2.198,-1.21 3.807,-2.555 4.581,-3.983 0.185,-0.343 0.313,-0.692 0.401,-1.045 0.072,-0.286 0.122,-0.579 0.122,-0.874 -0.021,-1.012 -0.328,-1.924 -0.848,-2.753 -0.169,-0.271 -0.369,-0.529 -0.579,-0.781 -1.734,-2.087 -4.811,-3.659 -7.866,-5.181 -0.067,-0.033 -0.132,-0.067 -0.197,-0.1 l -6.354,1.451 -0.533,-1.467 -0.357,-0.987 -0.887,-2.446 -0.05,-0.135 -1.525,-4.212 6.898,1.685 4.132,1.011 1.315,0.32 1.372,0.336 3.299,0.805 3.623,0.884 -4.664,1.184 c 0,0 0.45,0.234 1.149,0.646 0.649,0.381 1.523,0.926 2.459,1.582 1.731,1.21 3.691,2.815 4.95,4.587 0.195,0.271 0.37,0.542 0.526,0.818 0.183,0.329 0.346,0.66 0.472,0.996 0.295,0.892 0.387,1.771 0.294,2.628 z"
   id="path62" />
</g>
<path
   style="fill:#ffffff;stroke-width:0.44226"
   d="m 176.71565,287.62031 c -2.64045,-1.39218 -5.1188,-4.18578 -13.51394,-15.23299 C 136.814,237.66359 123.30032,223.90381 93.095823,201.00471 73.100404,185.84547 71.046974,183.77503 71.836066,179.56881 c 0.532814,-2.84014 3.115716,-5.27778 16.075304,-15.17118 20.41978,-15.58854 29.46874,-23.24956 40.58316,-34.35848 11.33753,-11.33191 18.65384,-20.0833 37.35564,-44.682885 7.8578,-10.33583 11.15978,-13.136094 14.66338,-12.435374 3.1262,0.625241 6.57219,4.28013 16.51989,17.521369 13.23029,17.61064 22.54496,28.61183 33.34283,39.3799 11.37808,11.34668 18.55437,17.40589 39.82913,33.62923 12.6744,9.66503 15.4817,12.23075 16.60734,15.1782 0.73084,1.91367 0.73297,2.14834 0.0361,3.97296 -1.0074,2.63782 -3.98142,5.34976 -15.07985,13.75092 -29.8175,22.57092 -45.33838,37.17947 -62.98359,59.28138 -3.30497,4.13972 -9.0938,11.59447 -12.86407,16.56613 -7.99125,10.53765 -11.47968,14.43099 -13.93121,15.54828 -2.24841,1.02473 -3.12716,1.00325 -5.27452,-0.12895 z m 7.3255,-26.26839 c 0.81791,-0.41886 4.55165,-3.17203 8.2972,-6.11816 23.75241,-18.68291 44.84485,-40.15794 63.76259,-64.91919 4.4414,-5.8133 4.83272,-6.59889 4.83272,-9.70193 0,-2.83124 -0.5662,-3.88137 -5.69555,-10.5635 -19.08591,-24.86366 -39.97697,-45.83379 -65.35458,-65.60191 -5.66619,-4.41374 -7.1765,-5.159761 -10.44588,-5.159761 -3.3944,0 -5.56288,1.259501 -14.38697,8.356251 -22.99679,18.49511 -43.5516,39.26133 -61.34034,61.97127 -5.478719,6.99438 -6.434809,9.23568 -5.614906,13.1626 0.564576,2.70405 0.836262,3.12235 7.387906,11.37474 18.53039,23.34074 37.29983,42.11398 60.54151,60.55378 7.73244,6.13486 8.54877,6.70354 10.45323,7.2819 2.0351,0.61805 5.71916,0.3082 7.56307,-0.63609 z"
   id="path335" /><path
   style="fill:#ffffff;stroke-width:0.44226"
   d="m 240.28583,131.67673 c -8.41458,-7.72052 -17.22041,-17.37433 -27.39012,-30.02775 l -5.0333,-6.262571 V 54.879937 14.373464 h 3.91975 3.91975 l 0.30421,4.31204 c 2.4615,34.890761 12.71244,69.139486 27.29157,91.182026 l 2.17124,3.28276 -0.11776,11.53296 -0.11775,11.53297 z"
   id="path337" /><path
   style="fill:#ffffff;stroke-width:0.44226"
   d="m 181.54791,67.367609 c -0.72973,-0.215102 -2.20278,-0.269031 -3.27346,-0.119839 l -1.94667,0.27126 0.30625,-8.550672 c 0.42132,-11.763004 1.12696,-41.431876 1.14217,-48.022412 l 0.0125,-5.4176905 h 1.91859 1.91859 l 0.30095,21.3390665 c 0.16552,11.736486 0.48066,25.716458 0.7003,31.066607 0.21965,5.350148 0.36521,9.749419 0.32346,9.776162 -0.0417,0.02674 -0.67295,-0.127375 -1.40268,-0.342482 z"
   id="path339" /><path
   style="fill:#ffffff;stroke-width:0.44226"
   d="m 113.66093,124.71668 v -11.33864 l 1.26778,-1.84872 c 5.48976,-8.00542 11.3002,-19.795018 16.05974,-32.585831 6.09704,-16.385214 11.05298,-40.139792 12.08726,-57.936118 0.41972,-7.221874 0.008,-6.633907 4.6477,-6.633907 h 3.97192 l -0.005,40.135136 -0.005,40.135135 -6.02177,7.518425 c -3.31197,4.13514 -8.03132,9.80713 -10.48744,12.60442 -4.76723,5.42946 -18.10198,18.85814 -20.23311,20.37564 l -1.28233,0.9131 z"
   id="path341" /><path
   style="fill:#ffffff;stroke-width:0.44226"
   d="m 12.825553,167.39558 v -5.74939 l 4.090909,-0.007 c 5.722838,-0.01 16.414215,-0.75708 22.444717,-1.56928 21.51272,-2.89734 39.704719,-11.36338 57.383293,-26.70457 l 3.648648,-3.16624 v 8.64344 8.64345 l -5.19656,4.11888 c -2.858108,2.26539 -9.241302,7.1789 -14.184875,10.91891 -4.943574,3.74001 -9.745077,7.65974 -10.670007,8.71052 l -1.681691,1.9105 H 40.742769 12.825553 Z"
   id="path343" /><path
   style="fill:#ffffff;stroke-width:0.44226"
   d="M 99.24545,230.13896 C 96.551208,227.12615 85.645362,218.86035 79.164619,214.91922 62.502899,204.78675 42.053461,199.69071 18.022113,199.68239 l -5.19656,-0.002 v -5.74939 -5.74938 h 27.809016 27.809016 l 2.834898,2.76413 c 1.559189,1.52027 7.40447,6.23338 12.989508,10.47359 5.585037,4.2402 11.49798,8.77632 13.139871,10.08026 l 2.985258,2.3708 v 8.60524 c 0,4.73288 -0.0687,8.60524 -0.15258,8.60524 -0.0839,0 -0.531716,-0.42395 -0.99509,-0.94212 z"
   id="path345" /><path
   style="fill:#ffffff;stroke-width:0.44226"
   d="m 143.52143,345.84767 c -0.0967,-0.48649 -0.29905,-2.97421 -0.44964,-5.52826 -1.85485,-31.45803 -12.80469,-67.36835 -27.19923,-89.20061 l -2.21163,-3.35438 V 236.5325 c 0,-10.84547 0.0285,-11.21666 0.82928,-10.78811 1.39986,0.74918 16.44325,15.86867 21.15108,21.25807 2.44353,2.79729 7.05532,8.35155 10.24842,12.34278 l 5.80562,7.25678 v 40.09228 40.09227 l -3.99903,-0.0272 c -3.63421,-0.0247 -4.01506,-0.10788 -4.17487,-0.91171 z"
   id="path347" /><path
   style="fill:#ffffff;stroke-width:0.44226"
   d="m 177.7762,350.38084 c -0.0152,-6.57341 -0.72042,-36.24705 -1.13981,-47.95762 l -0.3039,-8.48587 h 2.93691 c 1.61531,0 3.15054,-0.13203 3.41163,-0.29339 0.33214,-0.20528 0.39537,0.94865 0.21054,3.84214 -0.48798,7.63918 -1.12222,33.6559 -1.12238,46.0397 l -1.5e-4,12.27273 h -1.99017 -1.99017 z"
   id="path349" /><path
   style="fill:#ffffff;stroke-width:0.44226"
   d="m 207.86564,306.26691 0.003,-40.46838 5.15188,-6.41278 c 8.22273,-10.23521 16.38171,-19.26376 24.58525,-27.20555 l 7.62741,-7.38403 0.11805,11.61893 0.11805,11.61893 -2.17602,3.35399 c -14.3005,22.04194 -23.90735,53.03888 -26.87708,86.72009 l -0.7604,8.62408 -3.89681,0.002 -3.8968,0.002 0.003,-40.46839 z"
   id="path351" /><path
   style="fill:#ffffff;stroke-width:0.44226"
   d="m 258.72236,222.37626 v -8.77818 l 7.18673,-5.54757 c 3.9527,-3.05116 10.5032,-8.08185 14.55666,-11.17931 4.05346,-3.09745 7.89467,-6.31971 8.53602,-7.16056 l 1.16609,-1.52882 h 28.06103 28.06104 v 5.67981 5.67981 l -8.95578,0.27793 c -20.39303,0.63288 -35.37507,3.99317 -49.83699,11.17785 -9.07022,4.50608 -16.71907,9.77849 -26.89519,18.53907 l -1.87961,1.61815 z"
   id="path353" /><path
   style="fill:#ffffff;stroke-width:0.44226"
   d="m 287.68189,170.34081 c -1.46415,-1.49826 -8.49852,-7.1855 -15.63193,-12.63833 -7.13341,-5.45282 -13.05489,-10.13586 -13.15884,-10.40674 -0.10394,-0.27088 -0.13469,-4.22723 -0.0683,-8.7919 l 0.12068,-8.29938 3.98034,3.42097 c 20.9606,18.0149 40.31406,25.74827 68.99263,27.5685 3.89189,0.24702 8.71806,0.44983 10.72482,0.45069 l 3.64865,0.002 v 5.74939 5.74938 l -27.97298,-0.04 -27.97297,-0.04 -2.66209,-2.7241 z"
   id="path355" /><path
   style="fill:#ffffff;stroke-width:0.44226"
   d="m 177.32061,255.89325 c -2.05794,-0.66572 -3.23255,-1.46577 -9.7039,-6.60953 -11.44901,-9.10024 -18.59265,-15.50601 -29.88297,-26.79633 -11.06829,-11.06829 -17.62969,-18.3638 -26.27937,-29.21958 -6.55114,-8.222 -7.08091,-9.14005 -7.08091,-12.27071 0,-3.11892 0.52577,-4.2276 4.35285,-9.17892 17.55248,-22.70861 37.9221,-43.12921 61.21864,-61.37186 5.66065,-4.43265 7.22282,-5.15504 10.43155,-4.82387 2.79961,0.28895 3.5455,0.75088 11.56453,7.16193 11.08286,8.86053 17.86748,14.95426 28.77964,25.84895 10.89174,10.87432 16.20738,16.80278 25.53141,28.47486 7.35024,9.20123 8.49105,11.01573 8.48461,13.49503 -0.007,2.55892 -0.85784,4.07911 -5.97687,10.67442 -13.63962,17.57317 -29.41059,34.37194 -44.4969,47.3968 -7.6514,6.60589 -17.80035,14.73554 -20.09726,16.0986 -1.98857,1.18008 -5.09062,1.68774 -6.84505,1.12021 z m 9.55712,-22.25501 c 0.15747,-0.15747 -0.034,-7.11605 -0.4254,-15.4635 -0.39143,-8.34746 -0.70956,-15.97327 -0.70696,-16.94624 l 0.005,-1.76904 h -5.9705 -5.9705 l -0.20044,1.32678 c -0.11024,0.72973 -0.41435,7.2973 -0.6758,14.5946 -0.26145,7.29729 -0.58748,14.39907 -0.72452,15.78172 l -0.24915,2.51391 1.69853,0.20029 c 2.44818,0.28869 12.88101,0.10045 13.21999,-0.23852 z m 0.0237,-36.17729 c 13.21788,-1.04434 23.81353,-3.8279 30.14292,-7.91878 3.59281,-2.32215 5.07691,-4.35239 5.3013,-7.25221 0.24459,-3.16092 -1.41587,-5.70413 -5.5932,-8.56664 -1.70659,-1.16945 -3.11138,-2.25804 -3.12175,-2.41909 -0.0104,-0.16105 0.77722,-0.42732 1.75019,-0.5917 0.97297,-0.16438 1.76904,-0.43414 1.76904,-0.59946 0,-0.36046 -20.3776,-5.48485 -20.66563,-5.19683 -0.15054,0.15054 2.78991,8.85579 3.18881,9.44053 0.0399,0.0584 1.58501,-0.2221 3.43374,-0.62329 l 3.36132,-0.72943 3.07006,1.82389 c 6.0319,3.58348 7.27304,6.46095 4.23653,9.822 -3.15773,3.49523 -12.5269,6.76738 -22.81756,7.96896 -6.55606,0.76551 -19.54963,0.3287 -25.01097,-0.84081 -11.37739,-2.43638 -17.34668,-5.98814 -17.34668,-10.32138 0,-1.57785 0.26114,-2.07967 1.8987,-3.64874 1.04429,-1.0006 3.05323,-2.36591 4.46431,-3.03403 2.70464,-1.28059 9.51841,-3.39802 10.93462,-3.39802 1.31836,0 0.98693,-0.57701 -1.04456,-1.81854 -1.03378,-0.63179 -3.47174,-2.1665 -5.41769,-3.41048 l -3.53808,-2.26176 -3.46868,0.89162 c -12.20344,3.13689 -20.22244,9.13587 -20.18254,15.09847 0.0156,2.33195 1.4344,4.82504 4.16732,7.32278 8.43452,7.70868 29.25384,11.94068 50.48847,10.26294 z m -2.18729,-6.87056 c 0.24068,-0.6272 -0.35462,-16.89575 -1.02272,-27.94911 l -0.27399,-4.53317 h 4.0407 c 2.22238,0 4.0387,-0.0498 4.03627,-0.11057 -0.0354,-0.88456 -11.94175,-34.14258 -12.2032,-34.08723 -0.31326,0.0663 -12.06286,32.94508 -12.10245,33.8661 -0.008,0.18244 1.77691,0.3317 3.96609,0.3317 3.94374,0 3.98035,0.0101 3.98035,1.09828 0,0.60404 -0.30567,7.90177 -0.67925,16.21716 -0.55259,12.29963 -0.57321,15.18618 -0.11057,15.47972 0.31278,0.19845 2.71437,0.36388 5.33687,0.3676 3.90821,0.006 4.81574,-0.11718 5.0319,-0.68048 z"
   id="path357" /></svg>
